<mxfile host="Electron" agent="Mozilla/5.0 (X11; Linux x86_64) AppleWebKit/537.36 (KHTML, like Gecko) draw.io/24.7.5 Chrome/126.0.6478.183 Electron/31.3.0 Safari/537.36" version="24.7.5">
  <diagram name="Page-1" id="03018318-947c-dd8e-b7a3-06fadd420f32">
    <mxGraphModel dx="1368" dy="843" grid="1" gridSize="10" guides="1" tooltips="1" connect="1" arrows="1" fold="1" page="1" pageScale="1" pageWidth="1100" pageHeight="850" background="#ffffff" math="0" shadow="0">
      <root>
        <mxCell id="0" />
        <mxCell id="1" parent="0" />
        <mxCell id="0dOeJm9CYNNUfiJuqzpY-3" value=".home" style="rounded=0;whiteSpace=wrap;html=1;fontSize=20;align=left;labelPosition=center;verticalLabelPosition=top;verticalAlign=bottom;" vertex="1" parent="1">
          <mxGeometry x="70" y="120" width="910" height="680" as="geometry" />
        </mxCell>
        <mxCell id="0dOeJm9CYNNUfiJuqzpY-1" value=".mapapp" style="whiteSpace=wrap;html=1;fontSize=20;horizontal=1;fontFamily=Courier New;labelPosition=center;verticalLabelPosition=top;align=left;verticalAlign=bottom;" vertex="1" parent="1">
          <mxGeometry x="90" y="150" width="880" height="630" as="geometry" />
        </mxCell>
        <mxCell id="677b7b8949515195-16" value="#map" style="verticalLabelPosition=top;shadow=0;dashed=0;align=left;html=1;verticalAlign=bottom;strokeWidth=1;shape=mxgraph.mockup.graphics.simpleIcon;strokeColor=#999999;rounded=0;labelBackgroundColor=none;fontFamily=Verdana;fontSize=20;fontColor=#000000;comic=1;labelPosition=center;" parent="1" vertex="1">
          <mxGeometry x="106.44859813084112" y="173.625" width="616.8224299065421" height="598.5" as="geometry" />
        </mxCell>
        <mxCell id="677b7b8949515195-2" value="LOGO" style="whiteSpace=wrap;html=1;rounded=0;shadow=0;labelBackgroundColor=none;strokeWidth=1;fontFamily=Verdana;fontSize=28;align=center;comic=1;" parent="1" vertex="1">
          <mxGeometry x="122.89719626168224" y="193.3125" width="156.26168224299064" height="39.375" as="geometry" />
        </mxCell>
        <mxCell id="677b7b8949515195-25" value=".Content" style="whiteSpace=wrap;html=1;rounded=0;shadow=0;labelBackgroundColor=none;strokeWidth=1;fillColor=none;fontFamily=Verdana;fontSize=20;align=left;comic=1;labelPosition=center;verticalLabelPosition=top;verticalAlign=bottom;" parent="1" vertex="1">
          <mxGeometry x="729.9953271028037" y="181.495" width="230.2803738317757" height="590.625" as="geometry" />
        </mxCell>
        <mxCell id="677b7b8949515195-3" value="Search" style="strokeWidth=1;shadow=0;dashed=0;align=center;html=1;shape=mxgraph.mockup.forms.searchBox;strokeColor=#999999;mainText=;strokeColor2=#008cff;fontColor=#666666;fontSize=17;align=left;spacingLeft=3;rounded=0;labelBackgroundColor=none;comic=1;" parent="1" vertex="1">
          <mxGeometry x="754.6668224299065" y="439.9975" width="180.93457943925233" height="23.625" as="geometry" />
        </mxCell>
      </root>
    </mxGraphModel>
  </diagram>
</mxfile>
